<?xml version="1.0" encoding="utf-8"?>
<!-- Generator: Adobe Illustrator 16.0.0, SVG Export Plug-In . SVG Version: 6.00 Build 0)  -->
<!DOCTYPE svg PUBLIC "-//W3C//DTD SVG 1.1//EN" "http://www.w3.org/Graphics/SVG/1.1/DTD/svg11.dtd">
<svg version="1.1" id="Layer_1" xmlns="http://www.w3.org/2000/svg" xmlns:xlink="http://www.w3.org/1999/xlink" x="0px" y="0px"
	 width="51.75px" height="36.119px" viewBox="0 0 51.75 36.119" enable-background="new 0 0 51.75 36.119" xml:space="preserve">
<g>
	<defs>
		<rect id="SVGID_1_" width="51.75" height="36.119"/>
	</defs>
	<clipPath id="SVGID_2_">
		<use xlink:href="#SVGID_1_"  overflow="visible"/>
	</clipPath>
	<path clip-path="url(#SVGID_2_)" d="M24.933,21.613c-0.081,0-0.162-0.015-0.239-0.046L1.269,12.037
		c-0.239-0.097-0.395-0.331-0.394-0.589c0.001-0.259,0.159-0.49,0.4-0.586l25.111-9.942c0.15-0.059,0.318-0.059,0.469,0.001
		l23.621,9.406c0.24,0.096,0.398,0.329,0.398,0.588c0,0.259-0.158,0.492-0.398,0.588l-25.31,10.067
		C25.092,21.6,25.012,21.613,24.933,21.613 M3.207,11.458l21.728,8.84l23.596-9.385L26.62,2.189L3.207,11.458z"/>
	<path clip-path="url(#SVGID_2_)" fill="none" stroke="#000000" stroke-width="1.75" stroke-miterlimit="10" d="M24.933,21.613
		c-0.081,0-0.162-0.015-0.239-0.046L1.269,12.037c-0.239-0.097-0.395-0.331-0.394-0.589c0.001-0.259,0.159-0.49,0.4-0.586
		l25.111-9.942c0.15-0.059,0.318-0.059,0.469,0.001l23.621,9.406c0.24,0.096,0.398,0.329,0.398,0.588
		c0,0.259-0.158,0.492-0.398,0.588l-25.31,10.067C25.092,21.6,25.012,21.613,24.933,21.613z M3.207,11.458l21.728,8.84l23.596-9.385
		L26.62,2.189L3.207,11.458z"/>
	<path clip-path="url(#SVGID_2_)" d="M25.445,30.322c-0.073,0-0.147-0.013-0.219-0.039c-0.747-0.275-10.792-5.064-15.432-7.293
		c-0.315-0.15-0.448-0.528-0.297-0.844c0.152-0.314,0.53-0.448,0.845-0.297c5.734,2.754,14.833,7.066,15.321,7.246
		c0.328,0.121,0.496,0.485,0.375,0.812C25.944,30.165,25.702,30.322,25.445,30.322"/>
	<path clip-path="url(#SVGID_2_)" fill="none" stroke="#000000" stroke-width="1.75" stroke-miterlimit="10" d="M25.445,30.322
		c-0.073,0-0.147-0.013-0.219-0.039c-0.747-0.275-10.792-5.064-15.432-7.293c-0.315-0.15-0.448-0.528-0.297-0.844
		c0.152-0.314,0.53-0.448,0.845-0.297c5.734,2.754,14.833,7.066,15.321,7.246c0.328,0.121,0.496,0.485,0.375,0.812
		C25.944,30.165,25.702,30.322,25.445,30.322z"/>
	<path clip-path="url(#SVGID_2_)" d="M12.425,24.156c-0.093,0-0.187-0.02-0.276-0.063c-1.389-0.674-2.327-1.091-2.337-1.096
		c-0.228-0.102-0.376-0.327-0.376-0.578v-6.743c0-0.35,0.283-0.633,0.633-0.633c0.349,0,0.633,0.283,0.633,0.633v6.335
		c0.405,0.185,1.112,0.513,2,0.942c0.314,0.153,0.446,0.532,0.293,0.847C12.885,24.025,12.66,24.156,12.425,24.156"/>
	<path clip-path="url(#SVGID_2_)" fill="none" stroke="#000000" stroke-width="1.75" stroke-miterlimit="10" d="M12.425,24.156
		c-0.093,0-0.187-0.02-0.276-0.063c-1.389-0.674-2.327-1.091-2.337-1.096c-0.228-0.102-0.376-0.327-0.376-0.578v-6.743
		c0-0.35,0.283-0.633,0.633-0.633c0.349,0,0.633,0.283,0.633,0.633v6.335c0.405,0.185,1.112,0.513,2,0.942
		c0.314,0.153,0.446,0.532,0.293,0.847C12.885,24.025,12.66,24.156,12.425,24.156z"/>
	<path clip-path="url(#SVGID_2_)" d="M25.445,30.322c-0.12,0-0.24-0.034-0.344-0.101c-0.18-0.117-0.289-0.318-0.289-0.533
		l0.014-8.673c0-0.35,0.284-0.632,0.633-0.632h0.001c0.35,0,0.633,0.283,0.633,0.634l-0.014,7.689l14.967-6.774l-0.002-7.098
		l1.267-0.001l0.002,7.507c0,0.249-0.146,0.474-0.372,0.576l-16.234,7.35C25.623,30.304,25.534,30.322,25.445,30.322"/>
	<path clip-path="url(#SVGID_2_)" fill="none" stroke="#000000" stroke-width="1.75" stroke-miterlimit="10" d="M25.445,30.322
		c-0.12,0-0.24-0.034-0.344-0.101c-0.18-0.117-0.289-0.318-0.289-0.533l0.014-8.673c0-0.35,0.284-0.632,0.633-0.632h0.001
		c0.35,0,0.633,0.283,0.633,0.634l-0.014,7.689l14.967-6.774l-0.002-7.098l1.267-0.001l0.002,7.507c0,0.249-0.146,0.474-0.372,0.576
		l-16.234,7.35C25.623,30.304,25.534,30.322,25.445,30.322z"/>
	<path clip-path="url(#SVGID_2_)" d="M14.443,35.244L14.443,35.244c-0.351-0.001-0.634-0.285-0.633-0.634l0.012-18.058
		c0-0.246,0.143-0.469,0.366-0.572l11.99-5.58c0.316-0.148,0.692-0.01,0.841,0.306c0.146,0.317,0.01,0.694-0.308,0.841l-11.625,5.41
		l-0.011,17.656C15.075,34.962,14.792,35.244,14.443,35.244"/>
	<path clip-path="url(#SVGID_2_)" fill="none" stroke="#000000" stroke-width="1.75" stroke-miterlimit="10" d="M14.443,35.244
		L14.443,35.244c-0.351-0.001-0.634-0.285-0.633-0.634l0.012-18.058c0-0.246,0.143-0.469,0.366-0.572l11.99-5.58
		c0.316-0.148,0.692-0.01,0.841,0.306c0.146,0.317,0.01,0.694-0.308,0.841l-11.625,5.41l-0.011,17.656
		C15.075,34.962,14.792,35.244,14.443,35.244z"/>
</g>
</svg>
