<?xml version="1.0" encoding="utf-8"?>
<!-- Generator: Adobe Illustrator 16.0.0, SVG Export Plug-In . SVG Version: 6.00 Build 0)  -->
<!DOCTYPE svg PUBLIC "-//W3C//DTD SVG 1.1//EN" "http://www.w3.org/Graphics/SVG/1.1/DTD/svg11.dtd">
<svg version="1.1" id="Layer_1" xmlns="http://www.w3.org/2000/svg" xmlns:xlink="http://www.w3.org/1999/xlink" x="0px" y="0px"
	 width="45.205px" height="39.2px" viewBox="0 0 45.205 39.2" enable-background="new 0 0 45.205 39.2" xml:space="preserve">
<g>
	<defs>
		<rect id="SVGID_1_" width="45.205" height="39.2"/>
	</defs>
	<clipPath id="SVGID_2_">
		<use xlink:href="#SVGID_1_"  overflow="visible"/>
	</clipPath>
	<path clip-path="url(#SVGID_2_)" d="M38.105,26.945c0.417-0.475,0.821-0.956,1.213-1.447c0.025-0.033,0.052-0.067,0.079-0.1
		c0.794-1.003,1.527-2.036,2.178-3.093c0.015-0.023,0.031-0.048,0.046-0.071c0.306-0.499,0.589-1.005,0.855-1.514
		c0.036-0.07,0.073-0.141,0.11-0.212c0.251-0.492,0.48-0.987,0.69-1.486c0.034-0.083,0.066-0.165,0.101-0.248
		c0.202-0.501,0.386-1.005,0.541-1.511c0.021-0.066,0.037-0.132,0.056-0.198c0.156-0.531,0.293-1.064,0.392-1.599
		c0.819-4.427-0.472-8.363-3.839-11.701C38.466,1.725,35.708,0.6,32.763,0.6c-2.985,0-5.79,1.15-7.897,3.238l-2.263,2.243
		L20.34,3.838C18.232,1.75,15.428,0.6,12.442,0.6c-2.945,0-5.703,1.125-7.764,3.166C1.31,7.104,0.019,11.04,0.839,15.467
		c0.099,0.535,0.234,1.068,0.391,1.599c0.019,0.066,0.036,0.132,0.056,0.198c0.155,0.506,0.338,1.01,0.541,1.511
		c0.033,0.083,0.067,0.165,0.101,0.248c0.209,0.499,0.439,0.994,0.69,1.486c0.036,0.071,0.074,0.142,0.111,0.212
		c0.266,0.509,0.549,1.015,0.855,1.514c0.015,0.023,0.031,0.048,0.045,0.071c0.651,1.057,1.385,2.09,2.179,3.093
		c0.027,0.032,0.052,0.066,0.079,0.1c0.391,0.491,0.796,0.973,1.213,1.447c0.027,0.029,0.054,0.061,0.08,0.091
		c0.428,0.484,0.867,0.959,1.316,1.424l0.001,0.002h0.001c1.414,1.464,2.917,2.828,4.424,4.062v0.001
		c0.007,0.006,0.014,0.011,0.02,0.016c1.269,1.038,2.539,1.981,3.758,2.813c0.021,0.014,0.042,0.027,0.063,0.042
		c0.396,0.269,0.786,0.526,1.168,0.771c0.003,0.002,0.005,0.004,0.008,0.005c0.374,0.239,0.741,0.464,1.1,0.679
		c0.051,0.031,0.102,0.061,0.153,0.092c0.338,0.198,0.669,0.39,0.99,0.565c0.012,0.006,0.025,0.015,0.037,0.021
		c0.321,0.176,0.63,0.336,0.93,0.487c0.068,0.034,0.133,0.066,0.2,0.1c0.293,0.144,0.58,0.281,0.85,0.399
		c0.129,0.058,0.266,0.085,0.403,0.085s0.274-0.027,0.403-0.085c0.271-0.118,0.557-0.256,0.851-0.399
		c0.066-0.033,0.132-0.065,0.199-0.1c0.301-0.151,0.609-0.312,0.931-0.487c0.012-0.007,0.024-0.016,0.037-0.021
		c0.32-0.176,0.651-0.367,0.989-0.565c0.052-0.031,0.103-0.061,0.153-0.092c0.359-0.214,0.725-0.438,1.099-0.678
		c0.005-0.003,0.009-0.005,0.013-0.008c0.381-0.243,0.77-0.501,1.165-0.768c0.021-0.016,0.041-0.029,0.062-0.043
		c1.22-0.832,2.489-1.775,3.758-2.813c0.008-0.005,0.015-0.01,0.021-0.016v-0.001c1.507-1.233,3.01-2.598,4.424-4.062l0.002-0.002
		c0.449-0.465,0.888-0.939,1.315-1.424C38.051,27.006,38.078,26.975,38.105,26.945 M30.863,31.104
		c-0.74,0.603-1.482,1.175-2.214,1.71h-0.001c-0.728,0.53-1.446,1.025-2.145,1.479c-0.016,0.01-0.031,0.02-0.046,0.029
		c-0.314,0.205-0.626,0.398-0.932,0.586c-0.04,0.024-0.08,0.05-0.12,0.074c-0.318,0.192-0.63,0.377-0.936,0.549
		c-0.026,0.015-0.053,0.029-0.078,0.044c-0.267,0.149-0.526,0.29-0.78,0.423c-0.069,0.036-0.137,0.072-0.205,0.107
		c-0.275,0.141-0.546,0.275-0.805,0.396c-0.26-0.121-0.529-0.256-0.804-0.396c-0.068-0.035-0.136-0.071-0.205-0.107
		c-0.255-0.133-0.514-0.273-0.78-0.423c-0.026-0.015-0.052-0.029-0.079-0.044c-0.305-0.172-0.617-0.356-0.935-0.549
		c-0.04-0.024-0.08-0.05-0.12-0.074c-0.307-0.188-0.618-0.383-0.935-0.588c-0.014-0.009-0.028-0.018-0.042-0.026
		c-0.699-0.455-1.417-0.949-2.145-1.48h-0.001c-0.733-0.535-1.474-1.107-2.214-1.71c-1.516-1.235-3.021-2.604-4.426-4.064
		c-1.308-1.359-2.526-2.797-3.58-4.281c-0.001-0.002-0.002-0.003-0.003-0.005C6,22.284,5.687,21.811,5.39,21.334
		c-0.027-0.044-0.054-0.086-0.081-0.13c-0.28-0.455-0.54-0.914-0.783-1.374c-0.034-0.063-0.067-0.126-0.099-0.189
		c-0.234-0.453-0.448-0.908-0.641-1.364c-0.028-0.065-0.053-0.13-0.08-0.195c-0.189-0.461-0.359-0.923-0.503-1.385
		c-0.015-0.048-0.027-0.097-0.041-0.145c-0.145-0.483-0.268-0.967-0.357-1.449C2.113,11.366,3.217,8.03,6.086,5.188
		C7.77,3.519,10.027,2.6,12.442,2.6c2.454,0,4.759,0.944,6.49,2.66l2.966,2.94c0.391,0.384,1.018,0.384,1.409,0l2.967-2.94
		c1.73-1.716,4.036-2.66,6.489-2.66c2.415,0,4.672,0.919,6.356,2.588c2.869,2.842,3.973,6.178,3.281,9.915
		c-0.089,0.482-0.213,0.966-0.357,1.449c-0.015,0.048-0.025,0.097-0.041,0.145c-0.144,0.462-0.313,0.924-0.503,1.385
		c-0.027,0.065-0.052,0.13-0.08,0.195c-0.192,0.456-0.408,0.911-0.641,1.364c-0.032,0.063-0.065,0.126-0.1,0.189
		c-0.242,0.46-0.503,0.918-0.782,1.373c-0.027,0.044-0.056,0.088-0.082,0.132c-0.297,0.477-0.61,0.95-0.942,1.418
		c-0.001,0.002-0.002,0.003-0.004,0.005c-1.053,1.484-2.271,2.922-3.579,4.281C33.884,28.5,32.379,29.868,30.863,31.104"/>
	<path clip-path="url(#SVGID_2_)" fill="none" stroke="#000000" stroke-width="1.2" stroke-miterlimit="10" d="M38.105,26.945
		c0.417-0.475,0.821-0.956,1.213-1.447c0.025-0.033,0.052-0.067,0.079-0.1c0.794-1.003,1.527-2.036,2.178-3.093
		c0.015-0.023,0.031-0.048,0.046-0.071c0.306-0.499,0.589-1.005,0.855-1.514c0.036-0.07,0.073-0.141,0.11-0.212
		c0.251-0.492,0.48-0.987,0.69-1.486c0.034-0.083,0.066-0.165,0.101-0.248c0.202-0.501,0.386-1.005,0.541-1.511
		c0.021-0.066,0.037-0.132,0.056-0.198c0.156-0.531,0.293-1.064,0.392-1.599c0.819-4.427-0.472-8.363-3.839-11.701
		C38.466,1.725,35.708,0.6,32.763,0.6c-2.985,0-5.79,1.15-7.897,3.238l-2.263,2.243L20.34,3.838C18.232,1.75,15.428,0.6,12.442,0.6
		c-2.945,0-5.703,1.125-7.764,3.166C1.31,7.104,0.019,11.04,0.839,15.467c0.099,0.535,0.234,1.068,0.391,1.599
		c0.019,0.066,0.036,0.132,0.056,0.198c0.155,0.506,0.338,1.01,0.541,1.511c0.033,0.083,0.067,0.165,0.101,0.248
		c0.209,0.499,0.439,0.994,0.69,1.486c0.036,0.071,0.074,0.142,0.111,0.212c0.266,0.509,0.549,1.015,0.855,1.514
		c0.015,0.023,0.031,0.048,0.045,0.071c0.651,1.057,1.385,2.09,2.179,3.093c0.027,0.032,0.052,0.066,0.079,0.1
		c0.391,0.491,0.796,0.973,1.213,1.447c0.027,0.029,0.054,0.061,0.08,0.091c0.428,0.484,0.867,0.959,1.316,1.424l0.001,0.002h0.001
		c1.414,1.464,2.917,2.828,4.424,4.062v0.001c0.007,0.006,0.014,0.011,0.02,0.016c1.269,1.038,2.539,1.981,3.758,2.813
		c0.021,0.014,0.042,0.027,0.063,0.042c0.396,0.269,0.786,0.526,1.168,0.771c0.003,0.002,0.005,0.004,0.008,0.005
		c0.374,0.239,0.741,0.464,1.1,0.679c0.051,0.031,0.102,0.061,0.153,0.092c0.338,0.198,0.669,0.39,0.99,0.565
		c0.012,0.006,0.025,0.015,0.037,0.021c0.321,0.176,0.63,0.336,0.93,0.487c0.068,0.034,0.133,0.066,0.2,0.1
		c0.293,0.144,0.58,0.281,0.85,0.399c0.129,0.058,0.266,0.085,0.403,0.085s0.274-0.027,0.403-0.085
		c0.271-0.118,0.557-0.256,0.851-0.399c0.066-0.033,0.132-0.065,0.199-0.1c0.301-0.151,0.609-0.312,0.931-0.487
		c0.012-0.007,0.024-0.016,0.037-0.021c0.32-0.176,0.651-0.367,0.989-0.565c0.052-0.031,0.103-0.061,0.153-0.092
		c0.359-0.214,0.725-0.438,1.099-0.678c0.005-0.003,0.009-0.005,0.013-0.008c0.381-0.243,0.77-0.501,1.165-0.768
		c0.021-0.016,0.041-0.029,0.062-0.043c1.22-0.832,2.489-1.775,3.758-2.813c0.008-0.005,0.015-0.01,0.021-0.016v-0.001
		c1.507-1.233,3.01-2.598,4.424-4.062l0.002-0.002c0.449-0.465,0.888-0.939,1.315-1.424C38.051,27.006,38.078,26.975,38.105,26.945z
		 M30.863,31.104c-0.74,0.603-1.482,1.175-2.214,1.71h-0.001c-0.728,0.53-1.446,1.025-2.145,1.479
		c-0.016,0.01-0.031,0.02-0.046,0.029c-0.314,0.205-0.626,0.398-0.932,0.586c-0.04,0.024-0.08,0.05-0.12,0.074
		c-0.318,0.192-0.63,0.377-0.936,0.549c-0.026,0.015-0.053,0.029-0.078,0.044c-0.267,0.149-0.526,0.29-0.78,0.423
		c-0.069,0.036-0.137,0.072-0.205,0.107c-0.275,0.141-0.546,0.275-0.805,0.396c-0.26-0.121-0.529-0.256-0.804-0.396
		c-0.068-0.035-0.136-0.071-0.205-0.107c-0.255-0.133-0.514-0.273-0.78-0.423c-0.026-0.015-0.052-0.029-0.079-0.044
		c-0.305-0.172-0.617-0.356-0.935-0.549c-0.04-0.024-0.08-0.05-0.12-0.074c-0.307-0.188-0.618-0.383-0.935-0.588
		c-0.014-0.009-0.028-0.018-0.042-0.026c-0.699-0.455-1.417-0.949-2.145-1.48h-0.001c-0.733-0.535-1.474-1.107-2.214-1.71
		c-1.516-1.235-3.021-2.604-4.426-4.064c-1.308-1.359-2.526-2.797-3.58-4.281c-0.001-0.002-0.002-0.003-0.003-0.005
		C6,22.284,5.687,21.811,5.39,21.334c-0.027-0.044-0.054-0.086-0.081-0.13c-0.28-0.455-0.54-0.914-0.783-1.374
		c-0.034-0.063-0.067-0.126-0.099-0.189c-0.234-0.453-0.448-0.908-0.641-1.364c-0.028-0.065-0.053-0.13-0.08-0.195
		c-0.189-0.461-0.359-0.923-0.503-1.385c-0.015-0.048-0.027-0.097-0.041-0.145c-0.145-0.483-0.268-0.967-0.357-1.449
		C2.113,11.366,3.217,8.03,6.086,5.188C7.77,3.519,10.027,2.6,12.442,2.6c2.454,0,4.759,0.944,6.49,2.66l2.966,2.94
		c0.391,0.384,1.018,0.384,1.409,0l2.967-2.94c1.73-1.716,4.036-2.66,6.489-2.66c2.415,0,4.672,0.919,6.356,2.588
		c2.869,2.842,3.973,6.178,3.281,9.915c-0.089,0.482-0.213,0.966-0.357,1.449c-0.015,0.048-0.025,0.097-0.041,0.145
		c-0.144,0.462-0.313,0.924-0.503,1.385c-0.027,0.065-0.052,0.13-0.08,0.195c-0.192,0.456-0.408,0.911-0.641,1.364
		c-0.032,0.063-0.065,0.126-0.1,0.189c-0.242,0.46-0.503,0.918-0.782,1.373c-0.027,0.044-0.056,0.088-0.082,0.132
		c-0.297,0.477-0.61,0.95-0.942,1.418c-0.001,0.002-0.002,0.003-0.004,0.005c-1.053,1.484-2.271,2.922-3.579,4.281
		C33.884,28.5,32.379,29.868,30.863,31.104z"/>
</g>
</svg>
