<?xml version="1.0" encoding="utf-8"?>
<!-- Generator: Adobe Illustrator 16.0.0, SVG Export Plug-In . SVG Version: 6.00 Build 0)  -->
<!DOCTYPE svg PUBLIC "-//W3C//DTD SVG 1.1//EN" "http://www.w3.org/Graphics/SVG/1.1/DTD/svg11.dtd">
<svg version="1.1" id="Layer_1" xmlns="http://www.w3.org/2000/svg" xmlns:xlink="http://www.w3.org/1999/xlink" x="0px" y="0px"
	 width="51px" height="45px" viewBox="0 0 51 45" enable-background="new 0 0 51 45" xml:space="preserve">
<g>
	<defs>
		<rect id="SVGID_1_" width="51" height="45"/>
	</defs>
	<clipPath id="SVGID_2_">
		<use xlink:href="#SVGID_1_"  overflow="visible"/>
	</clipPath>
	<path clip-path="url(#SVGID_2_)" d="M50.5,20.5v-11c0-1.654-1.346-3-3-3h-14c-0.551,0-1-0.449-1-1v-2c0-1.654-1.346-3-3-3h-8
		c-1.654,0-3,1.346-3,3v2c0,0.551-0.449,1-1,1h-14c-1.654,0-3,1.346-3,3v32c0,1.654,1.346,3,3,3h44c1.654,0,3-1.346,3-3V20.5
		 M20.5,5.5v-2c0-0.551,0.449-1,1-1h8c0.551,0,1,0.449,1,1v2c0,0.352,0.072,0.686,0.184,1H20.316C20.428,6.186,20.5,5.852,20.5,5.5
		 M3.5,8.5h44c0.551,0,1,0.449,1,1v10.586L45.086,23.5H30.5v-1c0-0.552-0.447-1-1-1h-8c-0.553,0-1,0.448-1,1v1H5.914L2.5,20.086V9.5
		C2.5,8.949,2.949,8.5,3.5,8.5 M28.5,26.5h-6v-3h6V26.5z M47.5,42.5h-44c-0.551,0-1-0.449-1-1V22.914l2.293,2.293
		C4.98,25.394,5.234,25.5,5.5,25.5h15v2c0,0.552,0.447,1,1,1h8c0.553,0,1-0.448,1-1v-2h15c0.266,0,0.519-0.106,0.707-0.293
		l2.293-2.293V41.5C48.5,42.051,48.051,42.5,47.5,42.5"/>
	<path clip-path="url(#SVGID_2_)" fill="none" stroke="#000000" stroke-miterlimit="10" d="M50.5,20.5v-11c0-1.654-1.346-3-3-3h-14
		c-0.551,0-1-0.449-1-1v-2c0-1.654-1.346-3-3-3h-8c-1.654,0-3,1.346-3,3v2c0,0.551-0.449,1-1,1h-14c-1.654,0-3,1.346-3,3v32
		c0,1.654,1.346,3,3,3h44c1.654,0,3-1.346,3-3V20.5z M20.5,5.5v-2c0-0.551,0.449-1,1-1h8c0.551,0,1,0.449,1,1v2
		c0,0.352,0.072,0.686,0.184,1H20.316C20.428,6.186,20.5,5.852,20.5,5.5z M3.5,8.5h44c0.551,0,1,0.449,1,1v10.586L45.086,23.5H30.5
		v-1c0-0.552-0.447-1-1-1h-8c-0.553,0-1,0.448-1,1v1H5.914L2.5,20.086V9.5C2.5,8.949,2.949,8.5,3.5,8.5z M28.5,26.5h-6v-3h6V26.5z
		 M47.5,42.5h-44c-0.551,0-1-0.449-1-1V22.914l2.293,2.293C4.98,25.394,5.234,25.5,5.5,25.5h15v2c0,0.552,0.447,1,1,1h8
		c0.553,0,1-0.448,1-1v-2h15c0.266,0,0.519-0.106,0.707-0.293l2.293-2.293V41.5C48.5,42.051,48.051,42.5,47.5,42.5z"/>
</g>
</svg>
