<?xml version="1.0" encoding="utf-8"?>
<!-- Generator: Adobe Illustrator 16.0.0, SVG Export Plug-In . SVG Version: 6.00 Build 0)  -->
<!DOCTYPE svg PUBLIC "-//W3C//DTD SVG 1.1//EN" "http://www.w3.org/Graphics/SVG/1.1/DTD/svg11.dtd">
<svg version="1.1" id="Layer_1" xmlns="http://www.w3.org/2000/svg" xmlns:xlink="http://www.w3.org/1999/xlink" x="0px" y="0px"
	 width="303.295px" height="102.132px" viewBox="0 0 303.295 102.132" enable-background="new 0 0 303.295 102.132"
	 xml:space="preserve">
<rect fill="#FFFFFF" width="303.295" height="102.132"/>
<g>
	<defs>
		<rect id="SVGID_1_" width="303.295" height="102.132"/>
	</defs>
	<clipPath id="SVGID_2_">
		<use xlink:href="#SVGID_1_"  overflow="visible"/>
	</clipPath>
	<path clip-path="url(#SVGID_2_)" fill="#FFDE13" d="M19.907,51.14c0-19.953,16.174-36.125,36.125-36.125
		S92.158,31.187,92.158,51.14c0,19.949-16.175,36.126-36.126,36.126S19.907,71.089,19.907,51.14"/>
	<polygon clip-path="url(#SVGID_2_)" points="102.16,20.193 112.38,20.193 112.38,48.114 130.24,48.114 130.24,57.071 
		102.16,57.071 	"/>
	<rect x="137.456" y="20.193" clip-path="url(#SVGID_2_)" width="10.274" height="36.878"/>
	<path clip-path="url(#SVGID_2_)" d="M155.842,38.737v-0.105c0-10.747,8.429-19.177,19.861-19.177
		c6.479,0,11.062,2.002,14.962,5.374l-6.006,7.217c-2.635-2.212-5.269-3.477-8.903-3.477c-5.321,0-9.43,4.478-9.43,10.115v0.106
		c0,5.953,4.16,10.22,10.009,10.22c2.476,0,4.373-0.527,5.899-1.528v-4.478h-7.269v-7.481h16.963v16.595
		c-3.897,3.214-9.325,5.689-16.015,5.689C164.429,57.808,155.842,49.905,155.842,38.737"/>
	<polygon clip-path="url(#SVGID_2_)" points="200.252,20.193 210.472,20.193 210.472,33.996 223.59,33.996 223.59,20.193 
		233.811,20.193 233.811,57.071 223.59,57.071 223.59,43.057 210.472,43.057 210.472,57.071 200.252,57.071 	"/>
	<polygon clip-path="url(#SVGID_2_)" points="251.983,29.149 240.921,29.149 240.921,20.193 273.267,20.193 273.267,29.149 
		262.204,29.149 262.204,57.071 251.983,57.071 	"/>
	<polygon clip-path="url(#SVGID_2_)" points="102.182,66.935 112.008,66.935 112.008,69.832 105.34,69.832 105.34,73.253 
		111.203,73.253 111.203,76.151 105.34,76.151 105.34,82.187 102.182,82.187 	"/>
	<path clip-path="url(#SVGID_2_)" d="M114.295,74.713v-0.262c0-4.575,2.877-7.778,6.908-7.778c4.052,0,6.885,3.181,6.885,7.734
		v0.263c0,4.554-2.876,7.777-6.907,7.777C117.128,82.447,114.295,79.267,114.295,74.713 M124.82,74.647v-0.151
		c0-3.008-1.525-4.903-3.639-4.903c-2.136,0-3.639,1.873-3.639,4.881v0.152c0,3.007,1.547,4.902,3.661,4.902
		C123.316,79.528,124.82,77.654,124.82,74.647"/>
	<path clip-path="url(#SVGID_2_)" d="M131.247,66.934h5.731c1.764,0,3.181,0.502,4.14,1.46c0.828,0.828,1.285,2.027,1.285,3.53
		v0.087c0,2.311-1.154,3.771-2.832,4.511l3.246,5.665H139.2l-2.811-5.012h-1.982v5.012h-3.16V66.934z M136.738,74.386
		c1.613,0,2.484-0.915,2.484-2.288v-0.021c0-1.526-0.937-2.288-2.549-2.288h-2.266v4.597H136.738z"/>
	<polygon clip-path="url(#SVGID_2_)" points="154.017,69.854 150.181,69.854 150.181,66.934 160.989,66.934 160.989,69.854 
		157.154,69.854 157.154,82.187 154.017,82.187 	"/>
	<polygon clip-path="url(#SVGID_2_)" points="163.777,66.935 166.937,66.935 166.937,73.058 171.948,73.058 171.948,66.935 
		175.107,66.935 175.107,82.187 171.948,82.187 171.948,75.977 166.937,75.977 166.937,82.187 163.777,82.187 	"/>
	<polygon clip-path="url(#SVGID_2_)" points="178.811,66.935 188.638,66.935 188.638,69.788 181.949,69.788 181.949,73.079 
		187.832,73.079 187.832,75.934 181.949,75.934 181.949,79.332 188.725,79.332 188.725,82.187 178.811,82.187 	"/>
	<polygon clip-path="url(#SVGID_2_)" points="196.351,66.935 199.684,66.935 202.256,76.979 205.045,66.89 207.79,66.89 
		210.601,76.979 213.15,66.935 216.419,66.935 212.061,82.274 209.163,82.274 206.374,72.577 203.585,82.274 200.708,82.274 	"/>
	<path clip-path="url(#SVGID_2_)" d="M217.856,74.713v-0.262c0-4.575,2.876-7.778,6.907-7.778c4.052,0,6.885,3.181,6.885,7.734
		v0.263c0,4.554-2.876,7.777-6.907,7.777C220.688,82.447,217.856,79.267,217.856,74.713 M228.38,74.647v-0.151
		c0-3.008-1.524-4.903-3.639-4.903c-2.135,0-3.639,1.873-3.639,4.881v0.152c0,3.007,1.548,4.902,3.661,4.902
		S228.38,77.654,228.38,74.647"/>
	<path clip-path="url(#SVGID_2_)" d="M234.808,66.934h5.73c1.766,0,3.182,0.502,4.141,1.46c0.828,0.828,1.285,2.027,1.285,3.53
		v0.087c0,2.311-1.154,3.771-2.833,4.511l3.247,5.665h-3.617l-2.812-5.012h-1.981v5.012h-3.16V66.934z M240.299,74.386
		c1.611,0,2.483-0.915,2.483-2.288v-0.021c0-1.526-0.937-2.288-2.549-2.288h-2.266v4.597H240.299z"/>
	<polygon clip-path="url(#SVGID_2_)" points="249.123,66.935 252.282,66.935 252.282,79.288 258.448,79.288 258.448,82.187 
		249.123,82.187 	"/>
	<path clip-path="url(#SVGID_2_)" d="M261.215,66.935h4.924c4.424,0,7.278,3.05,7.278,7.517v0.196c0,4.467-2.854,7.539-7.278,7.539
		h-4.924V66.935z M264.375,69.788v9.544h1.743c2.396,0,4.03-1.678,4.03-4.707v-0.108c0-3.028-1.634-4.729-4.03-4.729H264.375z"/>
</g>
</svg>
